# xmcd
#
# Track frame offsets: 
#        150
#        12835
#        24638
#        37252
#        51041
#        64274
#        78234
#        91244
#        103395
#        115454
#        127355
#        138948
#        151716
#        161194
#        173340
#        185678
#        202846
#        214176
#        227058
#        240695
#
# Disc length: 3385 seconds
#
# Revision: 0
# Processed by: cddbd v1.5.2PL0 Copyright (c) Steve Scherf et al.
# Submitted via: ExactAudioCopy v0.95b2
#
DISCID=160d3714
DTITLE=Sister Rosetta Tharpe - Sister Rosetta Tharpe Disc 2 Rock Me
DYEAR=1900
DGENRE=Gospel
TTITLE0=Rock Me
TTITLE1=That's All
TTITLE2=Just a Closer Walk with Thee
TTITLE3=Precious Lord, Hold My Hand
TTITLE4=I'm in His Care
TTITLE5=Nobody's Fault But Mine
TTITLE6=I Want a Tall Skinny Papa
TTITLE7=What He Done For Me
TTITLE8=I Want Jesus to Walk Around My Bedside
TTITLE9=All Over This World
TTITLE10=Pure Religion
TTITLE11=Rock Me
TTITLE12=That's All
TTITLE13=Trouble in Mind
TTITLE14=Rock Danie
TTITLE15=Down by the Riverside
TTITLE16=I Want a Tall Skinny Papa
TTITLE17=This Train
TTITLE18=Sin Is to Blame
TTITLE19=That's All
EXTD=
EXTT0=
EXTT1=
EXTT2=
EXTT3=
EXTT4=
EXTT5=
EXTT6=
EXTT7=
EXTT8=
EXTT9=
EXTT10=
EXTT11=
EXTT12=
EXTT13=
EXTT14=
EXTT15=
EXTT16=
EXTT17=
EXTT18=
EXTT19=
PLAYORDER=
